HIERARCHY
ROOT hip
{
	OFFSET 0.000000 0.000000 0.000000 
	CHANNELS 6 Xposition Yposition Zposition Xrotation Zrotation Yrotation
	JOINT abdomen
	{
		OFFSET 0.000000 3.402643 0.000000 
		CHANNELS 3 Xrotation Zrotation Yrotation
		JOINT chest
		{
			OFFSET 0.000000 8.438565 -0.680529 
			CHANNELS 3 Xrotation Zrotation Yrotation
			JOINT neck
			{
				OFFSET 0.000000 10.207942 -0.272212 
				CHANNELS 3 Xrotation Zrotation Yrotation
				JOINT head
				{
					OFFSET 0.000000 3.130431 0.000000 
					CHANNELS 3 Xrotation Zrotation Yrotation
					End Site
					{
						OFFSET 0.000000 3.130435 0.000000 
					}
				}
			}
			JOINT lCollar
			{
				OFFSET 3.470700 6.669187 -0.816635 
				CHANNELS 3 Yrotation Zrotation Xrotation
				JOINT lShldr
				{
					OFFSET 3.198488 0.000000 0.000000 
					CHANNELS 3 Zrotation Yrotation Xrotation
					JOINT lForeArm
					{
						OFFSET 10.139888 0.000000 0.000000 
						CHANNELS 3 Yrotation Zrotation Xrotation
						JOINT lHand
						{
							OFFSET 8.370511 0.000000 0.000000 
							CHANNELS 3 Zrotation Yrotation Xrotation
							End Site
							{
								OFFSET 4.083176 0.000000 0.000000 
							}
						}
					}
				}
			}
			JOINT rCollar
			{
				OFFSET -3.470700 6.669187 -0.816635 
				CHANNELS 3 Yrotation Zrotation Xrotation
				JOINT rShldr
				{
					OFFSET -3.198488 0.000000 0.000000 
					CHANNELS 3 Zrotation Yrotation Xrotation
					JOINT rForeArm
					{
						OFFSET -10.139888 0.000000 0.000000 
						CHANNELS 3 Yrotation Zrotation Xrotation
						JOINT rHand
						{
							OFFSET -8.370511 0.000000 0.000000 
							CHANNELS 3 Zrotation Yrotation Xrotation
							End Site
							{
								OFFSET -4.083176 0.000000 0.000000 
							}
						}
					}
				}
			}
		}
	}
	JOINT lThigh
	{
		OFFSET 5.308129 -1.633274 1.361059 
		CHANNELS 3 Xrotation Zrotation Yrotation
		JOINT lShin
		{
			OFFSET -2.041588 -20.007561 0.000000 
			CHANNELS 3 Xrotation Zrotation Yrotation
			JOINT lFoot
			{
				OFFSET 0.000000 -19.190928 -1.224953 
				CHANNELS 3 Xrotation Yrotation Zrotation
				End Site
				{
					OFFSET 0.000000 -2.449906 4.627600 
				}
			}
		}
	}
	JOINT rThigh
	{
		OFFSET -5.308129 -1.633274 1.361059 
		CHANNELS 3 Xrotation Zrotation Yrotation
		JOINT rShin
		{
			OFFSET 2.041588 -20.007561 0.000000 
			CHANNELS 3 Xrotation Zrotation Yrotation
			JOINT rFoot
			{
				OFFSET 0.000000 -19.190928 -1.224953 
				CHANNELS 3 Xrotation Yrotation Zrotation
				End Site
				{
					OFFSET 0.000000 -2.449906 4.627600 
				}
			}
		}
	}
}
MOTION
Frames: 13
Frame Time: 0.033333
-0.269880 38.988537 -0.020455 -2.191502 -8.402141 77.985809 0.000000 0.000000 0.000000 6.270517 3.349030 7.047977 -4.326177 -0.090562 -0.012682 -31.654013 -3.520803 6.072299 -13.614808 20.450880 25.000000 -89.978188 15.970808 -9.377244 -68.998894 -33.248081 21.912352 11.961593 -4.978677 -62.684643 -3.429417 -18.154387 23.330156 54.625240 14.424559 69.778030 103.911736 -67.373451 42.880566 4.524063 -3.649413 -81.663536 -7.369143 7.325712 19.313156 113.281990 8.209293 -1.204497 9.114283 18.761797 2.674638 -16.717121 3.095791 2.611227 57.232906 4.346945 5.267433 -23.072311 -13.065457 2.702581 
-0.356875 39.588619 -0.335327 -0.998930 -9.109966 78.341324 0.000000 0.000000 0.000000 5.525950 3.149388 7.023362 -5.215402 -0.858281 -0.068505 -31.316175 -2.247715 6.029630 -11.576557 18.061758 25.000000 -88.176170 23.870686 -11.233144 -61.102673 -36.666702 34.125664 0.829282 0.181884 -60.574108 -2.173071 -19.468889 23.662878 54.490322 21.540314 68.114700 -48.971989 -104.559135 -106.790146 3.960586 -4.003184 -81.927406 -17.209190 5.765283 18.002039 113.691612 7.925149 -1.264988 7.257154 18.816271 6.713038 -9.940039 1.161999 1.805166 51.298222 3.601963 4.563796 -23.159819 -10.761601 5.663786 
-0.151248 41.019650 -0.677055 0.681744 -8.739625 78.128548 0.000000 0.000000 0.000000 5.521942 2.274563 6.821612 -5.902075 -2.055117 -0.150573 -30.195187 -1.172178 6.508471 -9.439379 14.772080 25.000000 -86.782242 32.256237 -13.659767 -59.253899 -36.101437 44.450012 -2.033283 -3.537261 -59.678066 0.149332 -21.097359 24.448790 55.990715 26.935997 67.468513 -18.356934 -102.058723 -75.810745 7.041123 -4.405270 -81.559616 -21.934774 2.544762 16.495306 103.833374 7.507240 -1.540350 0.859526 17.875734 15.923841 1.537431 -1.604777 0.647119 38.076401 3.099321 3.151414 -18.952370 -7.363909 6.795789 
0.219820 42.645531 -0.820682 1.144268 -8.113637 77.171326 0.000000 0.000000 0.000000 5.619866 2.322778 6.830270 -5.986492 -3.373396 -0.254602 -29.240088 1.774056 7.333217 -6.629313 12.009925 25.000000 -85.272728 39.282848 -17.051910 -55.584435 -40.556644 39.557964 5.698584 -9.631126 -61.155186 2.519890 -23.531801 25.000000 58.127602 30.037249 67.607796 -3.833029 -101.217674 -55.928387 0.406617 -2.749410 -82.846489 -22.314327 1.347855 16.099564 86.777412 6.963023 -1.689607 -0.902724 11.892337 14.831559 13.737481 -3.134632 -0.013485 22.961256 4.109626 1.930830 -9.153212 -6.144816 8.321829 
0.577086 44.033081 -0.942527 1.526018 -7.292363 76.680344 0.000000 0.000000 0.000000 5.784554 1.933471 6.729251 -4.535135 -4.542962 -0.334107 -27.623602 3.421118 7.946318 -4.988013 9.765465 25.000000 -83.548531 43.799660 -20.988930 -55.627014 -43.647564 39.424725 7.210289 -11.548547 -61.724323 5.571032 -24.275162 25.000000 58.248558 29.107880 67.884865 -15.719115 -98.649307 -73.064835 4.135795 2.011662 -82.571770 -19.584091 0.095631 16.055677 64.758339 6.038559 -1.433307 -8.173818 9.909497 17.564810 21.925810 -5.349977 -0.750022 15.354581 7.037599 1.920190 1.827068 -7.518055 9.906880 
0.749815 44.791672 -0.943514 1.033599 -7.225399 76.276039 0.000000 0.000000 0.000000 5.296504 2.090653 6.785795 -0.137296 -6.649673 -0.496107 -27.047338 4.265346 9.026852 -4.733990 8.221185 25.000000 -81.808548 44.741879 -23.326260 -56.276730 -46.229683 35.914330 4.106072 -13.030659 -60.901184 8.615026 -23.337141 25.000000 58.163063 24.903103 68.857574 -32.420635 -99.397514 -85.988037 4.192708 -4.684779 -81.800644 -15.565953 0.048931 16.411669 40.059338 4.826465 -0.607888 -10.312360 8.710395 19.928642 23.529520 -5.321275 -0.749855 21.256596 7.039543 2.420579 3.454190 -14.056416 2.029512 
0.786274 44.644840 -0.670301 -1.667341 -5.320025 75.661781 0.000000 0.000000 0.000000 7.807806 3.521817 7.035624 2.414373 -7.687518 -0.573625 -27.384537 4.152244 9.441249 -3.590352 9.358178 25.000000 -80.320824 43.579006 -23.788126 -56.267551 -50.061546 32.292805 4.264661 -14.664747 -61.125038 9.644217 -22.795742 25.000000 61.326206 22.135401 70.829048 119.078529 -77.346901 61.410175 -0.070453 -8.677137 -81.605469 -7.605450 3.045025 17.879583 22.913206 3.656323 0.123062 -12.599856 -1.465347 7.481290 25.265684 -2.030872 0.256437 33.083088 2.060104 2.432511 10.497359 -13.616351 10.016547 
0.535011 43.707489 -0.695313 -1.865702 -6.002698 76.366997 0.000000 0.000000 0.000000 7.282140 2.460486 6.808586 2.688322 -5.526623 -0.422756 -28.517014 3.678255 9.564020 -5.557712 12.299977 25.000000 -83.017647 38.360584 -18.511177 -64.914581 -42.721813 24.288385 4.857306 -11.084596 -61.364292 7.364674 -21.272343 25.000000 64.349785 15.720454 73.589012 89.049957 -70.648079 25.417782 -7.806530 -7.038851 -83.237122 -9.274668 3.464640 17.922777 26.947641 4.192760 0.001164 -11.936582 -3.847283 1.944512 17.250593 -1.561934 0.418305 54.133663 0.665892 4.169032 12.620880 -15.273747 24.389311 
0.163076 42.182747 -0.983611 -0.815671 -6.425136 77.912979 0.000000 0.000000 0.000000 7.041585 0.726898 6.418026 2.996089 -4.131550 -0.321569 -29.182230 1.806335 8.775954 -9.054594 14.116873 25.000000 -83.909096 30.789717 -15.262611 -71.290222 -37.088440 16.677856 5.129888 -10.577866 -61.590282 4.671375 -20.363089 25.000000 65.686577 8.877256 75.782082 75.895645 -66.561928 22.739920 -0.705261 -10.437535 -81.200653 -12.043458 1.655895 17.181021 35.814655 5.925015 -0.137694 -8.418096 -3.349102 8.188357 8.263542 -3.434596 -0.035238 74.780182 0.907709 6.101194 10.395097 -17.683132 24.350359 
-0.212555 40.375862 -1.298902 0.147425 -6.474588 78.546837 0.000000 0.000000 0.000000 7.568892 -0.677638 6.081727 2.786344 -2.715033 -0.218665 -30.186445 0.357757 6.802312 -10.542844 16.380747 25.000000 -83.523087 20.997454 -13.463853 -79.078033 -31.999136 14.940122 6.026059 -7.290450 -61.901608 3.425487 -20.200777 25.000000 66.839798 3.186275 77.717697 62.484497 -60.564468 16.426579 5.250782 -10.475616 -80.397980 -16.169439 -0.498520 16.205912 49.382950 9.012180 -0.147698 -13.579012 3.317621 19.432158 -0.565978 -5.160125 -0.358698 92.949188 -0.283247 7.224214 9.247094 -17.428165 23.824703 
-0.672994 39.149723 -1.534096 1.690726 -6.549906 78.702606 0.000000 0.000000 0.000000 7.888100 -2.447354 5.686310 2.658214 -2.196835 -0.178972 -32.148518 0.103570 6.317002 -11.090652 17.626867 25.000000 -81.124840 9.131495 -13.073690 -85.604919 -25.806864 13.424308 5.578800 -7.671788 -62.210640 4.341568 -20.109241 25.000000 68.501396 -2.930016 80.142914 51.267292 -54.532555 8.721601 10.773448 -11.513846 -79.741776 -17.549131 -2.001390 15.666534 58.024685 9.328139 -0.470232 -20.143862 5.764615 21.124796 -11.288693 -7.294847 -0.674877 106.786903 -1.640706 7.709238 7.365562 -17.301180 21.360064 
-1.004087 39.011108 -1.483170 1.574334 -7.028622 79.405975 0.000000 0.000000 0.000000 7.976841 -2.572556 5.655187 1.875716 -1.573351 -0.128631 -33.814564 -0.865183 5.507148 -12.494161 17.678551 25.000000 -77.232689 -1.568379 -13.735169 -91.470131 -17.531897 11.898433 5.976812 -7.587254 -62.750069 3.706908 -19.312943 25.000000 67.805016 -9.970838 81.997131 49.044056 -48.318207 6.628892 12.014588 -11.142766 -79.664932 -13.194325 -1.769564 16.082895 56.864132 9.186313 -0.435294 -22.402317 3.500644 18.665092 -19.488947 -6.336729 -0.082553 110.929771 -1.004486 8.008791 4.893847 -17.594975 15.123154 
-1.019590 39.769905 -1.188029 0.019695 -7.392577 80.865379 0.000000 0.000000 0.000000 7.875566 -1.925043 5.798043 0.478518 0.166010 0.001415 -33.519775 -2.340616 5.396169 -15.893254 19.730284 25.000000 -75.006691 -10.981746 -13.965117 -94.507393 -9.838103 7.679535 10.327374 -10.516140 -64.543282 -0.264445 -17.661819 24.399937 63.636154 -16.550390 82.090576 54.844410 -41.771355 8.678987 8.283142 -8.380237 -80.271248 -4.776174 -0.346291 16.937950 49.261051 8.891926 -0.176697 -22.188967 -0.413802 17.494223 -24.907488 -4.169057 0.815286 107.422935 1.992875 8.508138 4.093188 -14.659252 15.449370 
